<svg id="Layer_1" data-name="Layer 1" xmlns="http://www.w3.org/2000/svg" xmlns:xlink="http://www.w3.org/1999/xlink" viewBox="0 0 914.88 858.55"><defs><style>.cls-1{fill:none;}.cls-2{fill:#fff;}.cls-3{clip-path:url(#clip-path);}.cls-4{clip-path:url(#clip-path-2);}.cls-5{clip-path:url(#clip-path-3);}</style><clipPath id="clip-path" transform="translate(-82.56 -66.93)"><rect class="cls-1" x="82.56" y="840.47" width="269.11" height="85.02"/></clipPath><clipPath id="clip-path-2" transform="translate(-82.56 -66.93)"><rect class="cls-1" x="534.19" y="858.71" width="462.84" height="53.51"/></clipPath><clipPath id="clip-path-3" transform="translate(-82.56 -66.93)"><rect class="cls-1" x="82.72" y="740.46" width="914.31" height="77.49"/></clipPath></defs><path class="cls-2" d="M481.49,853.46h-27.6A14.85,14.85,0,0,0,439,868.32v27.59a14.85,14.85,0,0,0,14.85,14.86h2.21a2,2,0,0,0,2-2h0a2,2,0,0,0-2-2h-2.32A10.72,10.72,0,0,1,443.05,896V868.2a10.72,10.72,0,0,1,10.73-10.73h27.83a10.72,10.72,0,0,1,10.73,10.73V896a10.72,10.72,0,0,1-10.73,10.73H473.2V884.82h7.05a2.13,2.13,0,1,0,0-4.25H473.2v-2.7a7,7,0,0,1,7.08-7h0a2.1,2.1,0,1,0,0-4.2h0a11.26,11.26,0,0,0-11.35,11.06v2.8h-4.64a2.13,2.13,0,1,0,0,4.25h4.64v21.94a2,2,0,0,0-1.92,2h0a2,2,0,0,0,2,2h12.48a14.86,14.86,0,0,0,14.86-14.86V868.32A14.86,14.86,0,0,0,481.49,853.46Z" transform="translate(-82.56 -66.93)"/><path class="cls-2" d="M396.07,868.29a14,14,0,1,0,14,14A14,14,0,0,0,396.07,868.29Zm0,23.69a9.69,9.69,0,1,1,9.68-9.68A9.68,9.68,0,0,1,396.07,892Z" transform="translate(-82.56 -66.93)"/><path class="cls-2" d="M413.93,867.14a2.75,2.75,0,1,0-2.75,2.74A2.75,2.75,0,0,0,413.93,867.14Z" transform="translate(-82.56 -66.93)"/><path class="cls-2" d="M409.87,853.46h-27.6a14.86,14.86,0,0,0-14.86,14.86v27.59a14.86,14.86,0,0,0,14.86,14.86h2.2a2,2,0,0,0,2-2h0a2,2,0,0,0-2-2h-2.32A10.72,10.72,0,0,1,371.42,896V868.2a10.72,10.72,0,0,1,10.73-10.73H410a10.72,10.72,0,0,1,10.73,10.73V896A10.72,10.72,0,0,1,410,906.76H397.39a2,2,0,0,0-2,2h0a2,2,0,0,0,2,2h12.49a14.85,14.85,0,0,0,14.85-14.86V868.32A14.85,14.85,0,0,0,409.87,853.46Z" transform="translate(-82.56 -66.93)"/><path class="cls-2" d="M82.64,623h.64c0,16.88.13,33.75,0,50.63-.13,11.95,2.13,14.92,13.71,17,8.78,1.58,17.53,3.33,26.3,5,25.8,4.93,51.45,11.1,77.45,14.47,36,4.67,69.16-3.82,97.24-27.92,33.76-29,48.92-66.12,46.63-110.29-2.35-45.15-22.31-80-63.31-100.54-24.36-12.18-50.17-21.41-74.83-33A203.17,203.17,0,0,1,169,415.92c-13.65-10.54-20.16-25.67-18.63-43.32,2-22.66,22.1-42.85,46.92-47.42,25.73-4.74,48.91,1.66,67.38,19.6,11.76,11.42,20.72,25.76,30.66,39,6.39,8.5,11.85,17.75,18.71,25.81,2,2.32,8.06,3.21,11.07,1.95,2.43-1,4.48-6.35,4.31-9.65-1-20.05-3-40.06-4.16-60.11-.93-16.07-4.54-21.69-20-26.3-38.68-11.54-77.93-15-117.71-6.5C138.13,319.49,92.82,352.69,89,414c-2.68,43.17,10.2,79.21,49.27,101.78,18.4,10.63,37.87,19.54,57.33,28.15,21.78,9.65,44.15,18.07,63.31,32.67,21.15,16.12,26.64,38.45,22.29,63.17-4.27,24.28-20.15,39.83-43.56,46-33.18,8.71-62.34-.44-85.12-25.68-10.66-11.82-19.62-25.74-26.81-40-8.08-16-13-33.58-19.92-50.25-1.83-4.43-4.89-10-8.79-11.59-8.39-3.43-14.1,1.37-14.28,11.13C82.4,587.21,82.64,605.09,82.64,623ZM511.7,453.33q0-65.93,0-131.84c0-6.21.66-12.43.3-18.6-.24-4.15-1.73-8.22-2.67-12.32-4.27,1.12-9.3,1.16-12.7,3.54-18.25,12.75-37.76,23-58.88,29.81-18.87,6.05-38.22,10.56-57.22,16.2-6.33,1.88-12.95,4.22-18.07,8.14-2.92,2.24-4.62,8.37-3.93,12.21.47,2.59,5.85,5.22,9.45,6.08,4.47,1.07,9.38.32,14.1.4,17.66.28,27.52,7.47,31.09,24.86A188.51,188.51,0,0,1,417,428c.52,60.83.57,121.66.54,182.49a104.86,104.86,0,0,1-9.69,43.25c-4.24,9.39-10.28,16.84-20.14,20.84-4.12,1.66-8.91,3.21-11.62,6.35s-4.65,8.39-4,12.23c.41,2.46,6,5.52,9.45,5.7,6.6.35,13.28-1.39,20-1.84,25-1.68,50-4.61,75-4.35,23.51.25,46.94,4.73,70.48,5.8,13.19.59,26.56-1.58,39.75-3.3,4.55-.59,8.65-4.56,7-9.67-1.1-3.39-4.71-6.23-7.73-8.65-1.53-1.24-4.24-1.12-6.44-1.4-4.93-.6-9.89-.92-14.8-1.62-29.82-4.24-45.33-18.92-49.91-48.6a267.15,267.15,0,0,1-3-38.54C511.49,542.21,511.7,497.77,511.7,453.33ZM461.15,216.19c4-2.07,7.5-3.1,10-5.25a215.12,215.12,0,0,0,49.74-60.64c3.59-6.52,3.75-13.44-.64-19-15.5-19.63-31-39.29-47.68-57.94-7.84-8.79-12.72-8.5-20.64.48-16.21,18.38-31.88,37.3-46.65,56.85-8.44,11.18-7.45,16.35,1.53,27.32q20.73,25.37,42.23,50.1C452.1,211.59,457,213.47,461.15,216.19Z" transform="translate(-82.56 -66.93)"/><path class="cls-2" d="M574.88,516.26C573.67,399,669.83,318.45,757,307.07c44.25-5.78,87.6-3.38,128.19,16,67.24,32.15,104.78,85.76,111.41,160.46C1004.86,577,953.88,661.21,866.94,695c-55.75,21.67-112.72,22.83-168.85,1.71C621.47,667.89,574.79,598.39,574.88,516.26ZM670.47,473c.14,42.46,7.36,83.46,26.07,121.9,13.62,28,30.77,53.42,56.9,71.41,48.25,33.22,107.45,20.58,136.55-30.09,7.75-13.5,13.8-29,16.29-44.29,8.78-54,1.79-106.85-18.47-157.65-12.47-31.25-30-59.28-56.51-80.9C791.6,321,719.54,316.78,686.74,386.71,673.89,414.09,670.42,443.18,670.47,473Z" transform="translate(-82.56 -66.93)"/><path class="cls-2" d="M82.64,623c0-17.87-.24-35.75.09-53.61.18-9.76,5.89-14.56,14.28-11.13,3.9,1.59,7,7.16,8.79,11.59,6.88,16.67,11.84,34.23,19.92,50.25,7.19,14.25,16.15,28.17,26.81,40,22.78,25.24,51.94,34.39,85.12,25.68,23.41-6.16,39.29-21.71,43.56-46,4.35-24.72-1.14-47-22.29-63.17-19.16-14.6-41.53-23-63.31-32.67-19.46-8.61-38.93-17.52-57.33-28.15C99.21,493.18,86.33,457.14,89,414c3.81-61.28,49.12-94.48,98.53-105,39.78-8.47,79-5,117.71,6.5,15.43,4.61,19,10.23,20,26.3,1.16,20.05,3.12,40.06,4.16,60.11.17,3.3-1.88,8.62-4.31,9.65-3,1.26-9.09.37-11.07-1.95-6.86-8.06-12.32-17.31-18.71-25.81-9.94-13.23-18.9-27.57-30.66-39-18.47-17.94-41.65-24.34-67.38-19.6-24.82,4.57-45,24.76-46.92,47.42-1.53,17.65,5,32.78,18.63,43.32a203.17,203.17,0,0,0,37.47,22.34c24.66,11.63,50.47,20.86,74.83,33,41,20.5,61,55.39,63.31,100.54,2.29,44.17-12.87,81.3-46.63,110.29-28.08,24.1-61.23,32.59-97.24,27.92-26-3.37-51.65-9.54-77.45-14.47-8.77-1.67-17.52-3.42-26.3-5-11.58-2.08-13.84-5.05-13.71-17,.17-16.88,0-33.75,0-50.63Z" transform="translate(-82.56 -66.93)"/><path class="cls-2" d="M511.7,453.33c0,44.44-.21,88.88.14,133.32a267.15,267.15,0,0,0,3,38.54c4.58,29.68,20.09,44.36,49.91,48.6,4.91.7,9.87,1,14.8,1.62,2.2.28,4.91.16,6.44,1.4,3,2.42,6.63,5.26,7.73,8.65,1.65,5.11-2.45,9.08-7,9.67-13.19,1.72-26.56,3.89-39.75,3.3-23.54-1.07-47-5.55-70.48-5.8-25-.26-50,2.67-75,4.35-6.68.45-13.36,2.19-20,1.84-3.42-.18-9-3.24-9.45-5.7-.64-3.84,1.32-9.13,4-12.23s7.5-4.69,11.62-6.35c9.86-4,15.9-11.45,20.14-20.84a104.86,104.86,0,0,0,9.69-43.25c0-60.83,0-121.66-.54-182.49a188.51,188.51,0,0,0-3.84-36.15c-3.57-17.39-13.43-24.58-31.09-24.86-4.72-.08-9.63.67-14.1-.4-3.6-.86-9-3.49-9.45-6.08-.69-3.84,1-10,3.93-12.21,5.12-3.92,11.74-6.26,18.07-8.14,19-5.64,38.35-10.15,57.22-16.2,21.12-6.77,40.63-17.06,58.88-29.81,3.4-2.38,8.43-2.42,12.7-3.54.94,4.1,2.43,8.17,2.67,12.32.36,6.17-.29,12.39-.3,18.6Q511.67,387.4,511.7,453.33Z" transform="translate(-82.56 -66.93)"/><path class="cls-2" d="M461.15,216.19c-4.18-2.72-9-4.6-12.09-8.08q-21.56-24.66-42.23-50.1c-9-11-10-16.14-1.53-27.32,14.77-19.55,30.44-38.47,46.65-56.85,7.92-9,12.8-9.27,20.64-.48,16.65,18.65,32.18,38.31,47.68,57.94,4.39,5.56,4.23,12.48.64,19a215.12,215.12,0,0,1-49.74,60.64C468.65,213.09,465.19,214.12,461.15,216.19Z" transform="translate(-82.56 -66.93)"/><path class="cls-2" d="M507.25,909a3,3,0,0,1,.12-.83l15.52-53.21a1.81,1.81,0,0,1,1.85-1.56,1.6,1.6,0,0,1,1.72,1.62,2.06,2.06,0,0,1-.1.71l-15.61,53.43a1.76,1.76,0,0,1-1.75,1.43A1.58,1.58,0,0,1,507.25,909Z" transform="translate(-82.56 -66.93)"/><g class="cls-3"><path class="cls-2" d="M124.52,892.15h20.17l-10.06-28.7Zm78.75-13a11.21,11.21,0,0,0,0-15.07,9.34,9.34,0,0,0-7.09-3.1h-15v21.26h15a9.37,9.37,0,0,0,7.09-3.09m85.67,13h20.17l-10.06-28.7Zm39.37,22.62H317L312.55,902H285.48L281,914.77H269.66l23.09-63.58H305.3Zm-63.2,0H226.46V851.19h38.2v10H236.92v16.53h25.46v9.9H236.92v17.17h28.19ZM204,890.07l14.46,24.7H207L193.55,891.6H181.17v23.17H170.72V851.19h25.46a20.32,20.32,0,0,1,20.46,20.43,19.11,19.11,0,0,1-3.5,11.13,20.05,20.05,0,0,1-9.14,7.32m-40.1,24.7H152.62L148.13,902H121.06l-4.46,12.81H105.24l23.1-63.58h12.54ZM351.67,883a42.51,42.51,0,0,0-42.51-42.51H125.07a42.51,42.51,0,1,0,0,85H309.16A42.51,42.51,0,0,0,351.67,883" transform="translate(-82.56 -66.93)"/></g><g class="cls-4"><path class="cls-2" d="M989.71,877.23a10.57,10.57,0,0,1,3.46,7H972a10.61,10.61,0,0,1,11-9.48,10,10,0,0,1,6.76,2.5m-17.44-1.88A14.65,14.65,0,0,0,968.12,886a14.46,14.46,0,0,0,4.2,10.67,14.75,14.75,0,0,0,10.91,4.21,15.29,15.29,0,0,0,7.39-1.76,13.59,13.59,0,0,0,5.11-4.78l-3.3-1.93a9,9,0,0,1-3.55,3.5,11.17,11.17,0,0,1-5.59,1.33,11.7,11.7,0,0,1-7.65-2.53,10.13,10.13,0,0,1-3.65-6.84h24.93c.07-.76.11-1.35.11-1.76a15.47,15.47,0,0,0-3.89-10.54A12.88,12.88,0,0,0,983,871.09a14.24,14.24,0,0,0-10.68,4.26M937.16,886a10.92,10.92,0,0,1,3.24-8,11.34,11.34,0,0,1,15.91,0,11.25,11.25,0,0,1-7.95,19.23,10.79,10.79,0,0,1-8-3.26,10.91,10.91,0,0,1-3.24-8m22.38-8.64a12.7,12.7,0,0,0-11.47-6.25,14.08,14.08,0,0,0-10.37,4.32,15.15,15.15,0,0,0,0,21.13,14.08,14.08,0,0,0,10.37,4.32,12.72,12.72,0,0,0,11.47-6.25V899a9,9,0,0,1-2.81,7,11,11,0,0,1-7.7,2.58q-7.6,0-10.16-5.17l-3.3,1.88q3.46,6.93,13.46,6.92a15.15,15.15,0,0,0,10.06-3.52,11.91,11.91,0,0,0,4.2-9.65V871.77h-3.75Zm-36.29-.11a10.57,10.57,0,0,1,3.46,7H905.52a10.63,10.63,0,0,1,11-9.48,10,10,0,0,1,6.77,2.5m-17.44-1.88A14.61,14.61,0,0,0,901.66,886a14.46,14.46,0,0,0,4.2,10.67,14.73,14.73,0,0,0,10.91,4.21,15.25,15.25,0,0,0,7.38-1.76,13.55,13.55,0,0,0,5.12-4.78l-3.3-1.93a9,9,0,0,1-3.55,3.5,11.14,11.14,0,0,1-5.59,1.33,11.65,11.65,0,0,1-7.64-2.53,10.15,10.15,0,0,1-3.67-6.84h24.94c.08-.76.12-1.35.12-1.76a15.52,15.52,0,0,0-3.9-10.54,12.88,12.88,0,0,0-10.2-4.46,14.23,14.23,0,0,0-10.67,4.26m-9-16.64h-3.75v41.46h3.75Zm-10.28,0H882.8v41.46h3.75ZM851.84,886a10.92,10.92,0,0,1,3.24-8A11.34,11.34,0,0,1,871,878a11.49,11.49,0,0,1,0,16,11.34,11.34,0,0,1-15.91,0,10.91,10.91,0,0,1-3.24-8M878,886a14.28,14.28,0,0,0-4.34-10.6,15.23,15.23,0,0,0-21.19,0,15.1,15.1,0,0,0,0,21.19,15.23,15.23,0,0,0,21.19,0A14.28,14.28,0,0,0,878,886m-37,12.89a13.14,13.14,0,0,0,5.16-5.4L843,891.65A11.17,11.17,0,0,1,825.43,894a11.46,11.46,0,0,1,0-16,10.79,10.79,0,0,1,8-3.26,11,11,0,0,1,5.71,1.5,8.81,8.81,0,0,1,3.66,4.06l3.07-1.76a11.94,11.94,0,0,0-4.88-5.42,15,15,0,1,0-7.56,27.75,14.82,14.82,0,0,0,7.56-2m-24.49-1.25a3.07,3.07,0,1,0-.9,2.22,3,3,0,0,0,.9-2.22m-12.21-38.91h-3.75v41.46h3.75ZM767.83,886a10.92,10.92,0,0,1,3.24-8,11.32,11.32,0,0,1,15.9,0,11.46,11.46,0,0,1,0,16,11.32,11.32,0,0,1-15.9,0,10.91,10.91,0,0,1-3.24-8m22.38-8.64a12.71,12.71,0,0,0-11.47-6.25,14.07,14.07,0,0,0-10.37,4.32,15.15,15.15,0,0,0,0,21.13,14.07,14.07,0,0,0,10.37,4.32,12.73,12.73,0,0,0,11.47-6.25v5.56H794v-28.4h-3.75Zm-33.29,21.53a13.17,13.17,0,0,0,5.17-5.4L759,891.65a10.66,10.66,0,0,1-3.91,4.06A11.38,11.38,0,0,1,741.41,894a11.49,11.49,0,0,1,0-16,10.79,10.79,0,0,1,8-3.26,11,11,0,0,1,5.71,1.5,8.86,8.86,0,0,1,3.66,4.06l3.07-1.76a12,12,0,0,0-4.89-5.42,15.31,15.31,0,0,0-18.23,2.27,14.89,14.89,0,0,0,10.68,25.48,14.76,14.76,0,0,0,7.55-2m-27.32-27.1h-3.75v28.4h3.75Zm.85-8.75a2.73,2.73,0,0,0-4.66-1.92,2.73,2.73,0,0,0,3.87,3.85,2.64,2.64,0,0,0,.79-1.93m-37.26,23a11.1,11.1,0,1,1,3.24,8,10.88,10.88,0,0,1-3.24-8m22.38-8.64a12.71,12.71,0,0,0-11.48-6.25,14.08,14.08,0,0,0-10.37,4.32,15.18,15.18,0,0,0,0,21.13,14.08,14.08,0,0,0,10.37,4.32,12.73,12.73,0,0,0,11.48-6.25v5.56h3.75V860.41h-3.75Zm-36.3-.11a10.58,10.58,0,0,1,3.47,7H661.55a10.61,10.61,0,0,1,11-9.48,10,10,0,0,1,6.76,2.5m-17.44-1.88A14.65,14.65,0,0,0,657.68,886a14.43,14.43,0,0,0,4.21,10.67,14.73,14.73,0,0,0,10.9,4.21,15.26,15.26,0,0,0,7.39-1.76,13.59,13.59,0,0,0,5.11-4.78L682,892.39a9.06,9.06,0,0,1-3.55,3.5,11.21,11.21,0,0,1-5.6,1.33,11.65,11.65,0,0,1-7.64-2.53,10.14,10.14,0,0,1-3.66-6.84h24.93c.08-.76.12-1.35.12-1.76a15.51,15.51,0,0,0-3.89-10.54,12.91,12.91,0,0,0-10.2-4.46,14.24,14.24,0,0,0-10.68,4.26m-28.12.91q-2.51-5.18-8.63-5.17a9.72,9.72,0,0,0-8.69,4.83v-4.15h-3.75v28.4h3.75V884.44q0-5,2.38-7.33a7.9,7.9,0,0,1,5.8-2.38,6.18,6.18,0,0,1,4.85,2,8.29,8.29,0,0,1,1.8,5.73v17.72H635V884.44q0-5,2.19-7.36a7.46,7.46,0,0,1,5.71-2.35,6.63,6.63,0,0,1,5,2,8,8,0,0,1,1.9,5.71v17.72h3.75V882.45a11.53,11.53,0,0,0-2.93-8.29,10.95,10.95,0,0,0-16.9,2.1m-27,21.36a3.07,3.07,0,1,0-.9,2.22,3,3,0,0,0,.9-2.22M572.31,886a10.92,10.92,0,0,1,3.24-8,11.32,11.32,0,0,1,15.9,0,11.46,11.46,0,0,1,0,16,11.32,11.32,0,0,1-15.9,0,10.91,10.91,0,0,1-3.24-8m26.13,0a14.29,14.29,0,0,0-4.35-10.6,15.23,15.23,0,0,0-21.19,0,15.1,15.1,0,0,0,0,21.19,15.23,15.23,0,0,0,21.19,0A14.29,14.29,0,0,0,598.44,886m-34.71-14.21H560v28.4h3.75Zm.85-8.75a2.73,2.73,0,0,0-2.73-2.72,2.73,2.73,0,1,0,0,5.45,2.73,2.73,0,0,0,2.73-2.73m-24,12.85a7.54,7.54,0,0,1,4.2-1.14c3.45,0,5.72,1.33,6.82,4l3.12-1.82a9.61,9.61,0,0,0-3.86-4.23,11.63,11.63,0,0,0-6.08-1.56,10.39,10.39,0,0,0-6.95,2.33,7.28,7.28,0,0,0-2.76,5.79,6.51,6.51,0,0,0,1.71,4.69,9.06,9.06,0,0,0,4.14,2.49l4.88,1.39a15,15,0,0,1,4.15,1.83,3.52,3.52,0,0,1,1.71,3.07,3.7,3.7,0,0,1-1.88,3.43,9,9,0,0,1-4.66,1.11,9.19,9.19,0,0,1-4.91-1.28,6.64,6.64,0,0,1-2.87-3.49l-3.18,1.87a9.72,9.72,0,0,0,4,4.72,12.73,12.73,0,0,0,6.95,1.82,11.59,11.59,0,0,0,7.42-2.28,7.18,7.18,0,0,0,2.87-5.9,6.8,6.8,0,0,0-1.69-4.79,8.77,8.77,0,0,0-4.12-2.53L544.75,884a15.42,15.42,0,0,1-4.17-1.81,3.46,3.46,0,0,1-1.73-3,3.67,3.67,0,0,1,1.76-3.27" transform="translate(-82.56 -66.93)"/></g><g class="cls-5"><path class="cls-2" d="M964.83,783.4h29.09V772.09H964.83V753.22h31.69V741.81H952.89v72.61H997V803H964.83Zm-59.19-6.53v10.68h24.3a19.83,19.83,0,0,1-7.74,12.08q-6.08,4.53-15.73,4.52-12,0-19.47-7.36t-7.43-18.57A25.49,25.49,0,0,1,887,759.55q7.37-7.49,18.8-7.47a25.92,25.92,0,0,1,12.77,3.16,21.56,21.56,0,0,1,8.62,8.35l10.28-5.91a34,34,0,0,0-13.09-12.55,37.64,37.64,0,0,0-18.58-4.67q-16.21,0-27.17,10.94a38.11,38.11,0,0,0,0,53.47q11,10.9,27.79,10.9,15.89,0,25.75-9.49T942,781.85v-5Zm-76.85,6.53h29.07V772.09H828.79V753.22h31.67V741.81H816.84v72.61H861V803H828.79Zm-50.37-41.59H766.47v72.61H808V803h-29.6Zm-50.37,0H716.11v72.61h41.54V803h-29.6Zm-86.3,36.31q0-11.22,7.43-18.63a26.36,26.36,0,0,1,36.65,0,27,27,0,0,1,0,37.24,26.34,26.34,0,0,1-36.65,0,25.19,25.19,0,0,1-7.43-18.61m63.45,0a37.37,37.37,0,1,0-11,26.71,36.34,36.34,0,0,0,11-26.71m-94,32.93a33.54,33.54,0,0,0,12.93-12.71l-10.38-5.91a20.63,20.63,0,0,1-8.42,8.55,24.91,24.91,0,0,1-12.46,3.17q-11.64,0-18.85-7.36t-7.22-18.67q0-11.31,7.22-18.68t18.85-7.36a24.61,24.61,0,0,1,12.41,3.16,21.39,21.39,0,0,1,8.47,8.56l10.38-6a33.94,33.94,0,0,0-13-12.65,36.81,36.81,0,0,0-18.23-4.67q-16.41,0-27.21,10.84t-10.8,26.82q0,16,10.8,26.81t27.21,10.84a36.69,36.69,0,0,0,18.33-4.72" transform="translate(-82.56 -66.93)"/><path class="cls-2" d="M489,741.85H476.74v74.71h42.75V804.82H489Zm-54.7,14.4L446.15,790H422.46Zm34.4,60.31-27-74.71H426.94L399.8,816.56h13.35l5.24-15H450.2l5.27,15Zm-84.91-3.46A34.55,34.55,0,0,0,397.12,800l-10.68-6.08a21.26,21.26,0,0,1-8.66,8.8A25.65,25.65,0,0,1,365,806q-12,0-19.4-7.58t-7.43-19.21q0-11.64,7.43-19.22t19.4-7.58a25.36,25.36,0,0,1,12.77,3.26,22,22,0,0,1,8.71,8.81l10.68-6.19a34.86,34.86,0,0,0-13.41-13,37.81,37.81,0,0,0-18.75-4.8q-16.89,0-28,11.15t-11.12,27.6q0,16.42,11.12,27.59T365,818a37.66,37.66,0,0,0,18.86-4.85m-81.48,3.46h12.29V741.85H302.34Zm-64.13-11.74V753.59h17.1q10.59,0,17.26,7.2t6.68,18.42q0,11.1-6.68,18.35t-17.26,7.26Zm-12.29-63v74.71h29.39q15.39,0,25.6-10.83t10.21-26.52q0-15.81-10.21-26.59t-25.6-10.77Zm-44.35,42.8H211.5V773H181.57V753.59h32.6V741.85H169.29v74.71h45.42V804.82H181.57Zm-40.4-42.8-22.63,37.34L96,741.85H82.72v74.71H95V763.19l22.77,37.68h1.49L142,763.3v53.26h12.3V741.85Z" transform="translate(-82.56 -66.93)"/></g></svg>